<mxfile host="app.diagrams.net" modified="2021-03-20T15:28:07.488Z" agent="5.0 (Windows NT 10.0; Win64; x64) AppleWebKit/537.36 (KHTML, like Gecko) Chrome/89.0.4389.90 Safari/537.36" etag="vtXqcdA3Ji7R9iyconRF" version="14.4.9" type="github">
  <diagram id="dujPgOG2GD8zu5TKNKLE" name="Page-1">
    <mxGraphModel dx="4340" dy="2250" grid="1" gridSize="10" guides="1" tooltips="1" connect="1" arrows="1" fold="1" page="1" pageScale="1" pageWidth="8000" pageHeight="2000" math="0" shadow="0">
      <root>
        <mxCell id="0" />
        <mxCell id="1" parent="0" />
        <mxCell id="nhhT_SBoXh_8rAoRiU5J-33" style="edgeStyle=orthogonalEdgeStyle;rounded=0;orthogonalLoop=1;jettySize=auto;html=1;" parent="1" source="nhhT_SBoXh_8rAoRiU5J-2" target="nhhT_SBoXh_8rAoRiU5J-16" edge="1">
          <mxGeometry relative="1" as="geometry">
            <Array as="points">
              <mxPoint x="600" y="300" />
              <mxPoint x="2275" y="300" />
            </Array>
          </mxGeometry>
        </mxCell>
        <mxCell id="nhhT_SBoXh_8rAoRiU5J-34" style="edgeStyle=orthogonalEdgeStyle;rounded=0;orthogonalLoop=1;jettySize=auto;html=1;entryX=0.5;entryY=0;entryDx=0;entryDy=0;" parent="1" source="nhhT_SBoXh_8rAoRiU5J-2" target="nhhT_SBoXh_8rAoRiU5J-8" edge="1">
          <mxGeometry relative="1" as="geometry">
            <Array as="points">
              <mxPoint x="600" y="300" />
              <mxPoint x="2545" y="300" />
            </Array>
          </mxGeometry>
        </mxCell>
        <mxCell id="jnvt6yLyoFwgxf8Hf7rp-5" style="edgeStyle=orthogonalEdgeStyle;rounded=0;orthogonalLoop=1;jettySize=auto;html=1;entryX=0.5;entryY=0;entryDx=0;entryDy=0;" parent="1" source="nhhT_SBoXh_8rAoRiU5J-2" target="jnvt6yLyoFwgxf8Hf7rp-3" edge="1">
          <mxGeometry relative="1" as="geometry">
            <mxPoint x="410" y="410" as="targetPoint" />
            <Array as="points">
              <mxPoint x="600" y="300" />
              <mxPoint x="1750" y="300" />
            </Array>
          </mxGeometry>
        </mxCell>
        <mxCell id="jnvt6yLyoFwgxf8Hf7rp-24" style="edgeStyle=orthogonalEdgeStyle;rounded=0;orthogonalLoop=1;jettySize=auto;html=1;entryX=0.5;entryY=0;entryDx=0;entryDy=0;" parent="1" source="nhhT_SBoXh_8rAoRiU5J-2" target="jnvt6yLyoFwgxf8Hf7rp-23" edge="1">
          <mxGeometry relative="1" as="geometry">
            <Array as="points">
              <mxPoint x="600" y="300" />
              <mxPoint x="2940" y="300" />
            </Array>
          </mxGeometry>
        </mxCell>
        <mxCell id="HKmxBVGciyJfvPybg_TP-6" style="edgeStyle=orthogonalEdgeStyle;rounded=0;orthogonalLoop=1;jettySize=auto;html=1;entryX=0.5;entryY=0;entryDx=0;entryDy=0;" parent="1" source="nhhT_SBoXh_8rAoRiU5J-2" target="HKmxBVGciyJfvPybg_TP-1" edge="1">
          <mxGeometry relative="1" as="geometry">
            <Array as="points">
              <mxPoint x="600" y="300" />
              <mxPoint x="3340" y="300" />
            </Array>
          </mxGeometry>
        </mxCell>
        <mxCell id="HKmxBVGciyJfvPybg_TP-15" style="edgeStyle=orthogonalEdgeStyle;rounded=0;orthogonalLoop=1;jettySize=auto;html=1;" parent="1" source="nhhT_SBoXh_8rAoRiU5J-2" target="dxZLNk9cy04sAQ8Tn0tS-6" edge="1">
          <mxGeometry relative="1" as="geometry">
            <Array as="points">
              <mxPoint x="600" y="300" />
              <mxPoint x="3615" y="300" />
            </Array>
          </mxGeometry>
        </mxCell>
        <mxCell id="HKmxBVGciyJfvPybg_TP-19" style="edgeStyle=orthogonalEdgeStyle;rounded=0;orthogonalLoop=1;jettySize=auto;html=1;entryX=0.5;entryY=0;entryDx=0;entryDy=0;" parent="1" source="nhhT_SBoXh_8rAoRiU5J-2" target="dxZLNk9cy04sAQ8Tn0tS-7" edge="1">
          <mxGeometry relative="1" as="geometry">
            <Array as="points">
              <mxPoint x="600" y="300" />
              <mxPoint x="4050" y="300" />
            </Array>
          </mxGeometry>
        </mxCell>
        <mxCell id="HKmxBVGciyJfvPybg_TP-20" style="edgeStyle=orthogonalEdgeStyle;rounded=0;orthogonalLoop=1;jettySize=auto;html=1;" parent="1" source="nhhT_SBoXh_8rAoRiU5J-2" target="dxZLNk9cy04sAQ8Tn0tS-5" edge="1">
          <mxGeometry relative="1" as="geometry">
            <Array as="points">
              <mxPoint x="600" y="300" />
              <mxPoint x="4390" y="300" />
            </Array>
          </mxGeometry>
        </mxCell>
        <mxCell id="HKmxBVGciyJfvPybg_TP-33" style="edgeStyle=orthogonalEdgeStyle;rounded=0;orthogonalLoop=1;jettySize=auto;html=1;" parent="1" source="nhhT_SBoXh_8rAoRiU5J-2" target="dxZLNk9cy04sAQ8Tn0tS-8" edge="1">
          <mxGeometry relative="1" as="geometry">
            <Array as="points">
              <mxPoint x="600" y="300" />
              <mxPoint x="310" y="300" />
            </Array>
          </mxGeometry>
        </mxCell>
        <mxCell id="HKmxBVGciyJfvPybg_TP-52" style="edgeStyle=orthogonalEdgeStyle;rounded=0;orthogonalLoop=1;jettySize=auto;html=1;entryX=0.5;entryY=0;entryDx=0;entryDy=0;" parent="1" source="nhhT_SBoXh_8rAoRiU5J-2" target="dxZLNk9cy04sAQ8Tn0tS-18" edge="1">
          <mxGeometry relative="1" as="geometry">
            <Array as="points">
              <mxPoint x="600" y="300" />
              <mxPoint x="4870" y="300" />
            </Array>
          </mxGeometry>
        </mxCell>
        <mxCell id="HKmxBVGciyJfvPybg_TP-55" style="edgeStyle=orthogonalEdgeStyle;rounded=0;orthogonalLoop=1;jettySize=auto;html=1;entryX=0.5;entryY=0;entryDx=0;entryDy=0;" parent="1" source="nhhT_SBoXh_8rAoRiU5J-2" target="dxZLNk9cy04sAQ8Tn0tS-19" edge="1">
          <mxGeometry relative="1" as="geometry">
            <Array as="points">
              <mxPoint x="600" y="300" />
              <mxPoint x="5365" y="300" />
            </Array>
          </mxGeometry>
        </mxCell>
        <mxCell id="nhhT_SBoXh_8rAoRiU5J-2" value="ในฐานะที่เป็นลูกค้า ฉันต้องการหาคนดูแลสุนัขใกล้บ้านเพื่อความสะดวกสบายในการรับ-ส่งสุนัข" style="text;html=1;strokeColor=#9673a6;fillColor=#e1d5e7;align=center;verticalAlign=middle;whiteSpace=wrap;rounded=0;" parent="1" vertex="1">
          <mxGeometry x="480" y="200" width="240" height="70" as="geometry" />
        </mxCell>
        <mxCell id="jnvt6yLyoFwgxf8Hf7rp-11" style="edgeStyle=orthogonalEdgeStyle;rounded=0;orthogonalLoop=1;jettySize=auto;html=1;entryX=0.5;entryY=0;entryDx=0;entryDy=0;" parent="1" source="nhhT_SBoXh_8rAoRiU5J-3" target="jnvt6yLyoFwgxf8Hf7rp-9" edge="1">
          <mxGeometry relative="1" as="geometry">
            <Array as="points">
              <mxPoint x="270" y="910" />
              <mxPoint x="210" y="910" />
            </Array>
          </mxGeometry>
        </mxCell>
        <mxCell id="HKmxBVGciyJfvPybg_TP-12" style="edgeStyle=orthogonalEdgeStyle;rounded=0;orthogonalLoop=1;jettySize=auto;html=1;entryX=0.5;entryY=0;entryDx=0;entryDy=0;" parent="1" source="nhhT_SBoXh_8rAoRiU5J-3" target="dxZLNk9cy04sAQ8Tn0tS-10" edge="1">
          <mxGeometry relative="1" as="geometry">
            <mxPoint x="465" y="970.3200000000002" as="targetPoint" />
            <Array as="points">
              <mxPoint x="270" y="910" />
              <mxPoint x="510" y="910" />
            </Array>
          </mxGeometry>
        </mxCell>
        <mxCell id="HKmxBVGciyJfvPybg_TP-36" style="edgeStyle=orthogonalEdgeStyle;rounded=0;orthogonalLoop=1;jettySize=auto;html=1;" parent="1" source="nhhT_SBoXh_8rAoRiU5J-3" target="dxZLNk9cy04sAQ8Tn0tS-11" edge="1">
          <mxGeometry relative="1" as="geometry">
            <Array as="points">
              <mxPoint x="270" y="910" />
              <mxPoint x="885" y="910" />
            </Array>
          </mxGeometry>
        </mxCell>
        <mxCell id="nhhT_SBoXh_8rAoRiU5J-3" value="(R25)ในฐานะที่เป็นลูกค้า ฉันต้องการทราบข้อมูลผู้รับฝากสุนัขเพื่อประกอบการตัดสินใจในการฝากของสุนัข" style="text;html=1;align=center;verticalAlign=middle;whiteSpace=wrap;rounded=0;fillColor=#99FF99;strokeColor=#97D077;" parent="1" vertex="1">
          <mxGeometry x="165" y="672.5" width="220" height="90" as="geometry" />
        </mxCell>
        <mxCell id="nhhT_SBoXh_8rAoRiU5J-30" style="edgeStyle=orthogonalEdgeStyle;rounded=0;orthogonalLoop=1;jettySize=auto;html=1;entryX=0.5;entryY=0;entryDx=0;entryDy=0;" parent="1" source="nhhT_SBoXh_8rAoRiU5J-4" target="nhhT_SBoXh_8rAoRiU5J-7" edge="1">
          <mxGeometry relative="1" as="geometry">
            <Array as="points">
              <mxPoint x="1638" y="160" />
              <mxPoint x="6160" y="160" />
            </Array>
          </mxGeometry>
        </mxCell>
        <mxCell id="nhhT_SBoXh_8rAoRiU5J-31" style="edgeStyle=orthogonalEdgeStyle;rounded=0;orthogonalLoop=1;jettySize=auto;html=1;" parent="1" source="nhhT_SBoXh_8rAoRiU5J-4" target="nhhT_SBoXh_8rAoRiU5J-2" edge="1">
          <mxGeometry relative="1" as="geometry">
            <Array as="points">
              <mxPoint x="1638" y="160" />
              <mxPoint x="600" y="160" />
            </Array>
          </mxGeometry>
        </mxCell>
        <mxCell id="HKmxBVGciyJfvPybg_TP-60" style="edgeStyle=orthogonalEdgeStyle;rounded=0;orthogonalLoop=1;jettySize=auto;html=1;entryX=0.5;entryY=0;entryDx=0;entryDy=0;" parent="1" source="nhhT_SBoXh_8rAoRiU5J-4" target="dxZLNk9cy04sAQ8Tn0tS-17" edge="1">
          <mxGeometry relative="1" as="geometry">
            <Array as="points">
              <mxPoint x="1638" y="160" />
              <mxPoint x="7060" y="160" />
            </Array>
          </mxGeometry>
        </mxCell>
        <mxCell id="nhhT_SBoXh_8rAoRiU5J-4" value="ผู้ใช้งานที่มีเวลาว่างและมีบ้านที่มีพื้นที่ว่าง อยากรับฝากเลี้ยงสุนัข ต้องการงานเสริมและ&lt;br&gt;ลูกค้าที่มีสุนัขแต่มีธุระหรือไม่มีเวลาเลี้ยงดูต้องการมีคนดูแลสุนัขของตัวเอง" style="text;html=1;strokeColor=#82b366;fillColor=#d5e8d4;align=center;verticalAlign=middle;whiteSpace=wrap;rounded=0;" parent="1" vertex="1">
          <mxGeometry x="1420" y="35" width="435" height="60" as="geometry" />
        </mxCell>
        <mxCell id="HKmxBVGciyJfvPybg_TP-5" style="edgeStyle=orthogonalEdgeStyle;rounded=0;orthogonalLoop=1;jettySize=auto;html=1;entryX=0.5;entryY=0;entryDx=0;entryDy=0;" parent="1" source="nhhT_SBoXh_8rAoRiU5J-7" target="nhhT_SBoXh_8rAoRiU5J-15" edge="1">
          <mxGeometry relative="1" as="geometry" />
        </mxCell>
        <mxCell id="HKmxBVGciyJfvPybg_TP-18" style="edgeStyle=orthogonalEdgeStyle;rounded=0;orthogonalLoop=1;jettySize=auto;html=1;" parent="1" source="nhhT_SBoXh_8rAoRiU5J-7" target="dxZLNk9cy04sAQ8Tn0tS-2" edge="1">
          <mxGeometry relative="1" as="geometry">
            <Array as="points">
              <mxPoint x="6160" y="567.5" />
              <mxPoint x="6580" y="567.5" />
            </Array>
          </mxGeometry>
        </mxCell>
        <mxCell id="nhhT_SBoXh_8rAoRiU5J-7" value="ในฐานะที่เป็นผู้ใช้งาน ฉันต้องการสมัครเป็น&lt;br&gt;ผู้รับฝากเพื่อรับฝากเลี้ยงสุนัขและได้รายได้" style="text;html=1;strokeColor=#9673a6;fillColor=#e1d5e7;align=center;verticalAlign=middle;whiteSpace=wrap;rounded=0;" parent="1" vertex="1">
          <mxGeometry x="6040" y="250" width="240" height="60" as="geometry" />
        </mxCell>
        <mxCell id="nhhT_SBoXh_8rAoRiU5J-48" style="edgeStyle=orthogonalEdgeStyle;rounded=0;orthogonalLoop=1;jettySize=auto;html=1;entryX=0.5;entryY=0;entryDx=0;entryDy=0;" parent="1" source="nhhT_SBoXh_8rAoRiU5J-8" target="nhhT_SBoXh_8rAoRiU5J-20" edge="1">
          <mxGeometry relative="1" as="geometry" />
        </mxCell>
        <mxCell id="HKmxBVGciyJfvPybg_TP-84" style="edgeStyle=orthogonalEdgeStyle;rounded=0;orthogonalLoop=1;jettySize=auto;html=1;entryX=0.5;entryY=0;entryDx=0;entryDy=0;" parent="1" source="nhhT_SBoXh_8rAoRiU5J-8" target="HKmxBVGciyJfvPybg_TP-83" edge="1">
          <mxGeometry relative="1" as="geometry">
            <Array as="points">
              <mxPoint x="2545" y="650" />
              <mxPoint x="2725" y="650" />
            </Array>
          </mxGeometry>
        </mxCell>
        <mxCell id="nhhT_SBoXh_8rAoRiU5J-8" value="ในฐานะที่เป็นลูกค้า ฉันต้องการสนทนากับผู้รับฝากสุนัขเพื่อสอบถามข้อมูล" style="text;html=1;strokeColor=#d6b656;fillColor=#fff2cc;align=center;verticalAlign=middle;whiteSpace=wrap;rounded=0;" parent="1" vertex="1">
          <mxGeometry x="2450" y="434.36" width="190" height="75" as="geometry" />
        </mxCell>
        <mxCell id="nhhT_SBoXh_8rAoRiU5J-14" value="(R2)ระบบ profile ข้อมูลผู้รับฝาก" style="text;html=1;strokeColor=#b85450;fillColor=#f8cecc;align=center;verticalAlign=middle;whiteSpace=wrap;rounded=0;" parent="1" vertex="1">
          <mxGeometry x="50" y="1198.75" width="150" height="41.25" as="geometry" />
        </mxCell>
        <mxCell id="jnvt6yLyoFwgxf8Hf7rp-8" style="edgeStyle=orthogonalEdgeStyle;rounded=0;orthogonalLoop=1;jettySize=auto;html=1;entryX=0.5;entryY=0;entryDx=0;entryDy=0;" parent="1" source="nhhT_SBoXh_8rAoRiU5J-15" target="nhhT_SBoXh_8rAoRiU5J-23" edge="1">
          <mxGeometry relative="1" as="geometry" />
        </mxCell>
        <mxCell id="nhhT_SBoXh_8rAoRiU5J-15" value="ในฐานะที่เป็นผู้รับฝาก&amp;nbsp;ฉันต้องการทราบข้อมูลสุนัขเพื่อเตรียมพร้อมในการรับเลี้ยง" style="text;html=1;strokeColor=#d6b656;fillColor=#fff2cc;align=center;verticalAlign=middle;whiteSpace=wrap;rounded=0;" parent="1" vertex="1">
          <mxGeometry x="6045" y="647.5" width="230" height="70" as="geometry" />
        </mxCell>
        <mxCell id="HKmxBVGciyJfvPybg_TP-42" style="edgeStyle=orthogonalEdgeStyle;rounded=0;orthogonalLoop=1;jettySize=auto;html=1;entryX=0.5;entryY=0;entryDx=0;entryDy=0;" parent="1" source="nhhT_SBoXh_8rAoRiU5J-16" target="dxZLNk9cy04sAQ8Tn0tS-15" edge="1">
          <mxGeometry relative="1" as="geometry">
            <Array as="points">
              <mxPoint x="2275" y="658" />
            </Array>
          </mxGeometry>
        </mxCell>
        <mxCell id="nhhT_SBoXh_8rAoRiU5J-16" value="ในฐานะที่เป็นลูกค้า ฉันต้องการที่จะสมัครสมาชิกเพื่อที่จะได้ใช้บริการ HostDog" style="text;html=1;strokeColor=#d6b656;fillColor=#fff2cc;align=center;verticalAlign=middle;whiteSpace=wrap;rounded=0;" parent="1" vertex="1">
          <mxGeometry x="2160" y="424.91" width="230" height="83.43" as="geometry" />
        </mxCell>
        <mxCell id="nhhT_SBoXh_8rAoRiU5J-20" value="(R15)ระบบ Chat Online กับผู้รับฝาก" style="text;html=1;strokeColor=#b85450;fillColor=#f8cecc;align=center;verticalAlign=middle;whiteSpace=wrap;rounded=0;" parent="1" vertex="1">
          <mxGeometry x="2490" y="788.42" width="170" height="51.58" as="geometry" />
        </mxCell>
        <mxCell id="nhhT_SBoXh_8rAoRiU5J-21" value="(R4)ระบบสมัครสมาชิกลูกค้า" style="text;html=1;strokeColor=#b85450;fillColor=#f8cecc;align=center;verticalAlign=middle;whiteSpace=wrap;rounded=0;" parent="1" vertex="1">
          <mxGeometry x="2160" y="1039.67" width="150" height="50.33" as="geometry" />
        </mxCell>
        <mxCell id="nhhT_SBoXh_8rAoRiU5J-22" style="edgeStyle=orthogonalEdgeStyle;rounded=0;orthogonalLoop=1;jettySize=auto;html=1;exitX=0.5;exitY=1;exitDx=0;exitDy=0;" parent="1" source="nhhT_SBoXh_8rAoRiU5J-21" target="nhhT_SBoXh_8rAoRiU5J-21" edge="1">
          <mxGeometry relative="1" as="geometry" />
        </mxCell>
        <mxCell id="nhhT_SBoXh_8rAoRiU5J-23" value="(R5)ระบบ profile สุนัข" style="text;html=1;strokeColor=#b85450;fillColor=#f8cecc;align=center;verticalAlign=middle;whiteSpace=wrap;rounded=0;" parent="1" vertex="1">
          <mxGeometry x="6095" y="927.5" width="130" height="50" as="geometry" />
        </mxCell>
        <mxCell id="nhhT_SBoXh_8rAoRiU5J-24" style="edgeStyle=orthogonalEdgeStyle;rounded=0;orthogonalLoop=1;jettySize=auto;html=1;exitX=0.5;exitY=1;exitDx=0;exitDy=0;" parent="1" source="nhhT_SBoXh_8rAoRiU5J-14" target="nhhT_SBoXh_8rAoRiU5J-14" edge="1">
          <mxGeometry relative="1" as="geometry" />
        </mxCell>
        <mxCell id="nhhT_SBoXh_8rAoRiU5J-25" value="(R14)ระบบแสดงสถานะการฝาก" style="text;html=1;strokeColor=#b85450;fillColor=#f8cecc;align=center;verticalAlign=middle;whiteSpace=wrap;rounded=0;" parent="1" vertex="1">
          <mxGeometry x="1560" y="948.36" width="160" height="41.64" as="geometry" />
        </mxCell>
        <mxCell id="jnvt6yLyoFwgxf8Hf7rp-16" style="edgeStyle=orthogonalEdgeStyle;rounded=0;orthogonalLoop=1;jettySize=auto;html=1;exitX=0.5;exitY=1;exitDx=0;exitDy=0;" parent="1" source="jnvt6yLyoFwgxf8Hf7rp-3" target="jnvt6yLyoFwgxf8Hf7rp-15" edge="1">
          <mxGeometry relative="1" as="geometry">
            <mxPoint x="1560" y="625.8599999999999" as="sourcePoint" />
          </mxGeometry>
        </mxCell>
        <mxCell id="jnvt6yLyoFwgxf8Hf7rp-3" value="ในฐานะที่เป็นลูกค้า ฉันต้องการทราบสถานะในการฝากสุนัขเพื่อจะได้รู้สถานะการฝากสุนัขของฉัน" style="text;html=1;strokeColor=#d6b656;fillColor=#fff2cc;align=center;verticalAlign=middle;whiteSpace=wrap;rounded=0;" parent="1" vertex="1">
          <mxGeometry x="1630" y="560" width="240" height="56.25" as="geometry" />
        </mxCell>
        <mxCell id="jnvt6yLyoFwgxf8Hf7rp-7" value="&lt;font size=&quot;1&quot;&gt;&lt;b style=&quot;font-size: 50px&quot;&gt;HostDog User Story&lt;/b&gt;&lt;/font&gt;" style="text;html=1;strokeColor=none;fillColor=none;align=center;verticalAlign=middle;whiteSpace=wrap;rounded=0;" parent="1" vertex="1">
          <mxGeometry x="110" y="30" width="510" height="70" as="geometry" />
        </mxCell>
        <mxCell id="jnvt6yLyoFwgxf8Hf7rp-12" style="edgeStyle=orthogonalEdgeStyle;rounded=0;orthogonalLoop=1;jettySize=auto;html=1;entryX=0.441;entryY=0.034;entryDx=0;entryDy=0;entryPerimeter=0;" parent="1" source="jnvt6yLyoFwgxf8Hf7rp-9" target="nhhT_SBoXh_8rAoRiU5J-14" edge="1">
          <mxGeometry relative="1" as="geometry" />
        </mxCell>
        <mxCell id="HKmxBVGciyJfvPybg_TP-63" style="edgeStyle=orthogonalEdgeStyle;rounded=0;orthogonalLoop=1;jettySize=auto;html=1;" parent="1" source="jnvt6yLyoFwgxf8Hf7rp-9" target="HKmxBVGciyJfvPybg_TP-62" edge="1">
          <mxGeometry relative="1" as="geometry" />
        </mxCell>
        <mxCell id="HKmxBVGciyJfvPybg_TP-81" style="edgeStyle=orthogonalEdgeStyle;rounded=0;orthogonalLoop=1;jettySize=auto;html=1;" parent="1" source="jnvt6yLyoFwgxf8Hf7rp-9" target="jnvt6yLyoFwgxf8Hf7rp-10" edge="1">
          <mxGeometry relative="1" as="geometry" />
        </mxCell>
        <mxCell id="jnvt6yLyoFwgxf8Hf7rp-9" value="ในฐานะลูกค้าฉันต้องการเห็นรูปบ้านบริเวณรับเลี้ยงเพื่อความง่ายในการตัดสินใจใช้บริการและดูความเหมาะสมของบริเวณรับเลี้ยง" style="text;html=1;align=center;verticalAlign=middle;whiteSpace=wrap;rounded=0;fillColor=#FFB366;" parent="1" vertex="1">
          <mxGeometry x="130" y="953.75" width="160" height="80" as="geometry" />
        </mxCell>
        <mxCell id="jnvt6yLyoFwgxf8Hf7rp-10" value="(R3)ระบบให้ Partner ใส่รูปภาพสถานที่ที่รับฝาก" style="text;html=1;strokeColor=#b85450;fillColor=#f8cecc;align=center;verticalAlign=middle;whiteSpace=wrap;rounded=0;" parent="1" vertex="1">
          <mxGeometry x="270" y="1211.25" width="150" height="45" as="geometry" />
        </mxCell>
        <mxCell id="jnvt6yLyoFwgxf8Hf7rp-17" style="edgeStyle=orthogonalEdgeStyle;rounded=0;orthogonalLoop=1;jettySize=auto;html=1;entryX=0.25;entryY=0;entryDx=0;entryDy=0;" parent="1" source="jnvt6yLyoFwgxf8Hf7rp-15" target="nhhT_SBoXh_8rAoRiU5J-25" edge="1">
          <mxGeometry relative="1" as="geometry" />
        </mxCell>
        <mxCell id="jnvt6yLyoFwgxf8Hf7rp-19" style="edgeStyle=orthogonalEdgeStyle;rounded=0;orthogonalLoop=1;jettySize=auto;html=1;" parent="1" source="jnvt6yLyoFwgxf8Hf7rp-15" target="jnvt6yLyoFwgxf8Hf7rp-18" edge="1">
          <mxGeometry relative="1" as="geometry">
            <Array as="points">
              <mxPoint x="1750" y="875.8599999999999" />
              <mxPoint x="1860" y="875.8599999999999" />
            </Array>
          </mxGeometry>
        </mxCell>
        <mxCell id="HKmxBVGciyJfvPybg_TP-73" style="edgeStyle=orthogonalEdgeStyle;rounded=0;orthogonalLoop=1;jettySize=auto;html=1;" parent="1" source="jnvt6yLyoFwgxf8Hf7rp-15" target="HKmxBVGciyJfvPybg_TP-72" edge="1">
          <mxGeometry relative="1" as="geometry">
            <Array as="points">
              <mxPoint x="1750" y="880" />
              <mxPoint x="1750" y="880" />
            </Array>
          </mxGeometry>
        </mxCell>
        <mxCell id="jnvt6yLyoFwgxf8Hf7rp-15" value="ในฐานะที่เป็นลูกค้า ฉันต้องติดตามการฝากสุนัขของฉันเพื่อความสบายใจของฉัน" style="text;html=1;align=center;verticalAlign=middle;whiteSpace=wrap;rounded=0;fillColor=#99FF99;strokeColor=#97D077;" parent="1" vertex="1">
          <mxGeometry x="1645" y="722.4300000000001" width="210" height="80" as="geometry" />
        </mxCell>
        <mxCell id="jnvt6yLyoFwgxf8Hf7rp-18" value="(R18)ระบบดูสุนัขที่ฝากอยู่แบบ Real Time ผ่าน Video" style="text;html=1;strokeColor=#b85450;fillColor=#f8cecc;align=center;verticalAlign=middle;whiteSpace=wrap;rounded=0;" parent="1" vertex="1">
          <mxGeometry x="1780" y="948.3599999999999" width="180" height="40" as="geometry" />
        </mxCell>
        <mxCell id="jnvt6yLyoFwgxf8Hf7rp-20" value="(R22,R34)ระบบรายงานและรีวิวให้คะแนนผู้รับฝาก" style="text;html=1;strokeColor=#b85450;fillColor=#f8cecc;align=center;verticalAlign=middle;whiteSpace=wrap;rounded=0;" parent="1" vertex="1">
          <mxGeometry x="2830" y="737.57" width="220" height="60" as="geometry" />
        </mxCell>
        <mxCell id="jnvt6yLyoFwgxf8Hf7rp-21" value="(R1)ระบบหาคนรับฝากสุนัขบริเวณใกล้บ้านลูกค้า" style="text;html=1;strokeColor=#b85450;fillColor=#f8cecc;align=center;verticalAlign=middle;whiteSpace=wrap;rounded=0;" parent="1" vertex="1">
          <mxGeometry x="1020" y="1290.71" width="180" height="30" as="geometry" />
        </mxCell>
        <mxCell id="jnvt6yLyoFwgxf8Hf7rp-25" style="edgeStyle=orthogonalEdgeStyle;rounded=0;orthogonalLoop=1;jettySize=auto;html=1;" parent="1" source="jnvt6yLyoFwgxf8Hf7rp-23" target="jnvt6yLyoFwgxf8Hf7rp-20" edge="1">
          <mxGeometry relative="1" as="geometry" />
        </mxCell>
        <mxCell id="HKmxBVGciyJfvPybg_TP-86" style="edgeStyle=orthogonalEdgeStyle;rounded=0;orthogonalLoop=1;jettySize=auto;html=1;entryX=0.5;entryY=0;entryDx=0;entryDy=0;" parent="1" source="jnvt6yLyoFwgxf8Hf7rp-23" target="HKmxBVGciyJfvPybg_TP-85" edge="1">
          <mxGeometry relative="1" as="geometry">
            <Array as="points">
              <mxPoint x="2940" y="670" />
              <mxPoint x="3075" y="670" />
            </Array>
          </mxGeometry>
        </mxCell>
        <mxCell id="jnvt6yLyoFwgxf8Hf7rp-23" value="ในฐานะที่เป็นลูกค้า ฉันต้องการต้องการรีวิวหรือรายงานผู้รับฝากเพื่อให้ผู้รับฝากสุนัขปรับปรุงแก้ไขและคนอื่นๆสามารถตัดสินใจใช้บริการได้ง่ายขึ้น" style="text;html=1;strokeColor=#d6b656;fillColor=#fff2cc;align=center;verticalAlign=middle;whiteSpace=wrap;rounded=0;" parent="1" vertex="1">
          <mxGeometry x="2845" y="527.57" width="190" height="75" as="geometry" />
        </mxCell>
        <mxCell id="HKmxBVGciyJfvPybg_TP-8" style="edgeStyle=orthogonalEdgeStyle;rounded=0;orthogonalLoop=1;jettySize=auto;html=1;entryX=0.5;entryY=0;entryDx=0;entryDy=0;" parent="1" source="HKmxBVGciyJfvPybg_TP-1" target="HKmxBVGciyJfvPybg_TP-7" edge="1">
          <mxGeometry relative="1" as="geometry" />
        </mxCell>
        <mxCell id="HKmxBVGciyJfvPybg_TP-88" style="edgeStyle=orthogonalEdgeStyle;rounded=0;orthogonalLoop=1;jettySize=auto;html=1;entryX=0.5;entryY=0;entryDx=0;entryDy=0;" parent="1" source="HKmxBVGciyJfvPybg_TP-1" target="HKmxBVGciyJfvPybg_TP-87" edge="1">
          <mxGeometry relative="1" as="geometry">
            <Array as="points">
              <mxPoint x="3340" y="680" />
              <mxPoint x="3450" y="680" />
              <mxPoint x="3450" y="1000" />
            </Array>
          </mxGeometry>
        </mxCell>
        <mxCell id="HKmxBVGciyJfvPybg_TP-1" value="&lt;font style=&quot;font-size: 12px&quot;&gt;ในฐานะลูกค้าฉันต้องการวิธีการจ่ายเงินผ่านเว็บไซต์เพื่อความสะดวกสบาย&lt;/font&gt;" style="text;html=1;strokeColor=#d6b656;fillColor=#fff2cc;align=center;verticalAlign=middle;whiteSpace=wrap;rounded=0;" parent="1" vertex="1">
          <mxGeometry x="3225" y="587.5699999999999" width="230" height="51.25" as="geometry" />
        </mxCell>
        <mxCell id="HKmxBVGciyJfvPybg_TP-78" style="edgeStyle=orthogonalEdgeStyle;rounded=0;orthogonalLoop=1;jettySize=auto;html=1;entryX=0.5;entryY=0;entryDx=0;entryDy=0;" parent="1" source="dxZLNk9cy04sAQ8Tn0tS-2" target="HKmxBVGciyJfvPybg_TP-77" edge="1">
          <mxGeometry relative="1" as="geometry" />
        </mxCell>
        <mxCell id="dxZLNk9cy04sAQ8Tn0tS-2" value="ในฐานะผู้รับฝากฉันต้องการปฏิเสธคำขอของลูกค้าเมื่อฉันไม่สะดวกในการดูแล" style="text;html=1;strokeColor=#d6b656;fillColor=#fff2cc;align=center;verticalAlign=middle;whiteSpace=wrap;rounded=0;" parent="1" vertex="1">
          <mxGeometry x="6485" y="642.5" width="210" height="85" as="geometry" />
        </mxCell>
        <mxCell id="HKmxBVGciyJfvPybg_TP-7" value="(R21)ระบบจ่ายเงินผ่านเว็บไซต์" style="text;html=1;strokeColor=#b85450;fillColor=#f8cecc;align=center;verticalAlign=middle;whiteSpace=wrap;rounded=0;" parent="1" vertex="1">
          <mxGeometry x="3245" y="709.9999999999999" width="190" height="60" as="geometry" />
        </mxCell>
        <mxCell id="HKmxBVGciyJfvPybg_TP-29" style="edgeStyle=orthogonalEdgeStyle;rounded=0;orthogonalLoop=1;jettySize=auto;html=1;entryX=0.5;entryY=0;entryDx=0;entryDy=0;" parent="1" source="dxZLNk9cy04sAQ8Tn0tS-4" target="HKmxBVGciyJfvPybg_TP-28" edge="1">
          <mxGeometry relative="1" as="geometry">
            <Array as="points">
              <mxPoint x="4410" y="879" />
            </Array>
          </mxGeometry>
        </mxCell>
        <mxCell id="dxZLNk9cy04sAQ8Tn0tS-4" value="ในฐานะลูกค้าฉันต้องการยุติการบริการเมื่อฉันไม่พร้อมที่จะใช้บริการต่อไป" style="text;html=1;strokeColor=none;align=center;verticalAlign=middle;whiteSpace=wrap;rounded=0;fillColor=#99FF99;" parent="1" vertex="1">
          <mxGeometry x="4280" y="699.29" width="260" height="90" as="geometry" />
        </mxCell>
        <mxCell id="HKmxBVGciyJfvPybg_TP-21" style="edgeStyle=orthogonalEdgeStyle;rounded=0;orthogonalLoop=1;jettySize=auto;html=1;entryX=0.5;entryY=0;entryDx=0;entryDy=0;" parent="1" source="dxZLNk9cy04sAQ8Tn0tS-5" target="dxZLNk9cy04sAQ8Tn0tS-4" edge="1">
          <mxGeometry relative="1" as="geometry">
            <Array as="points">
              <mxPoint x="4410" y="699" />
            </Array>
          </mxGeometry>
        </mxCell>
        <mxCell id="dxZLNk9cy04sAQ8Tn0tS-5" value="ในฐานะลูกค้าฉันต้องการปฏิเสธคำขอการบริการเมื่อฉันไม่สะดวกที่จะใช้บริการเมื่อเวลานั้น" style="text;html=1;strokeColor=#d6b656;fillColor=#fff2cc;align=center;verticalAlign=middle;whiteSpace=wrap;rounded=0;" parent="1" vertex="1">
          <mxGeometry x="4245" y="528.6700000000001" width="330" height="58.12" as="geometry" />
        </mxCell>
        <mxCell id="HKmxBVGciyJfvPybg_TP-25" style="edgeStyle=orthogonalEdgeStyle;rounded=0;orthogonalLoop=1;jettySize=auto;html=1;entryX=0.5;entryY=0;entryDx=0;entryDy=0;" parent="1" source="dxZLNk9cy04sAQ8Tn0tS-6" target="HKmxBVGciyJfvPybg_TP-22" edge="1">
          <mxGeometry relative="1" as="geometry" />
        </mxCell>
        <mxCell id="HKmxBVGciyJfvPybg_TP-91" style="edgeStyle=orthogonalEdgeStyle;rounded=0;orthogonalLoop=1;jettySize=auto;html=1;entryX=0.5;entryY=0;entryDx=0;entryDy=0;" parent="1" source="dxZLNk9cy04sAQ8Tn0tS-6" target="HKmxBVGciyJfvPybg_TP-89" edge="1">
          <mxGeometry relative="1" as="geometry">
            <Array as="points">
              <mxPoint x="3615" y="680" />
              <mxPoint x="3490" y="680" />
              <mxPoint x="3490" y="820" />
              <mxPoint x="3625" y="820" />
            </Array>
          </mxGeometry>
        </mxCell>
        <mxCell id="dxZLNk9cy04sAQ8Tn0tS-6" value="ในฐานะผู้ใช้งานฉันต้องการที่จะดูประวัติการใช้บริการของตัวเอง&lt;br&gt;เพื่อที่จะติดตามว่าฉันได้ใช้บริการไว้กับใครบ้างหรือต้องการรู้ข้อมูลของบริการ" style="text;html=1;strokeColor=#d6b656;fillColor=#fff2cc;align=center;verticalAlign=middle;whiteSpace=wrap;rounded=0;" parent="1" vertex="1">
          <mxGeometry x="3515" y="546.88" width="200" height="83.12" as="geometry" />
        </mxCell>
        <mxCell id="HKmxBVGciyJfvPybg_TP-13" value="(R24)ระบบเรียงลำดับตามคะแนนการรีวิว ราคา จำนวนการรับฝาก" style="text;html=1;strokeColor=#b85450;fillColor=#f8cecc;align=center;verticalAlign=middle;whiteSpace=wrap;rounded=0;" parent="1" vertex="1">
          <mxGeometry x="470" y="1181.2500000000002" width="180" height="50" as="geometry" />
        </mxCell>
        <mxCell id="HKmxBVGciyJfvPybg_TP-27" style="edgeStyle=orthogonalEdgeStyle;rounded=0;orthogonalLoop=1;jettySize=auto;html=1;entryX=0.5;entryY=0;entryDx=0;entryDy=0;" parent="1" source="dxZLNk9cy04sAQ8Tn0tS-7" target="HKmxBVGciyJfvPybg_TP-26" edge="1">
          <mxGeometry relative="1" as="geometry">
            <Array as="points">
              <mxPoint x="4050" y="699" />
            </Array>
          </mxGeometry>
        </mxCell>
        <mxCell id="dxZLNk9cy04sAQ8Tn0tS-7" value="ในฐานะลูกค้าฉันต้องการระบุบริการเพิ่มเติมเช่น พาไปเดินเล่น ตัดขน เพื่อที่ฉันจะได้ไม่ต้องติดต่อผู้รับฝากในภายหลัง" style="text;html=1;strokeColor=#d6b656;fillColor=#fff2cc;align=center;verticalAlign=middle;whiteSpace=wrap;rounded=0;" parent="1" vertex="1">
          <mxGeometry x="3935" y="527.57" width="230" height="60" as="geometry" />
        </mxCell>
        <mxCell id="HKmxBVGciyJfvPybg_TP-38" style="edgeStyle=orthogonalEdgeStyle;rounded=0;orthogonalLoop=1;jettySize=auto;html=1;entryX=0.25;entryY=0;entryDx=0;entryDy=0;" parent="1" source="dxZLNk9cy04sAQ8Tn0tS-8" target="nhhT_SBoXh_8rAoRiU5J-3" edge="1">
          <mxGeometry relative="1" as="geometry" />
        </mxCell>
        <mxCell id="HKmxBVGciyJfvPybg_TP-41" style="edgeStyle=orthogonalEdgeStyle;rounded=0;orthogonalLoop=1;jettySize=auto;html=1;" parent="1" source="dxZLNk9cy04sAQ8Tn0tS-8" target="HKmxBVGciyJfvPybg_TP-39" edge="1">
          <mxGeometry relative="1" as="geometry">
            <Array as="points">
              <mxPoint x="310" y="650" />
              <mxPoint x="900" y="650" />
            </Array>
          </mxGeometry>
        </mxCell>
        <mxCell id="HKmxBVGciyJfvPybg_TP-46" style="edgeStyle=orthogonalEdgeStyle;rounded=0;orthogonalLoop=1;jettySize=auto;html=1;entryX=0.5;entryY=0;entryDx=0;entryDy=0;" parent="1" source="dxZLNk9cy04sAQ8Tn0tS-8" target="dxZLNk9cy04sAQ8Tn0tS-16" edge="1">
          <mxGeometry relative="1" as="geometry">
            <Array as="points">
              <mxPoint x="310" y="590" />
              <mxPoint x="1265" y="590" />
            </Array>
          </mxGeometry>
        </mxCell>
        <mxCell id="dxZLNk9cy04sAQ8Tn0tS-8" value="ในฐานะลูกค้าฉันต้องการทราบรายละเอียดในการบริการดูแลสุนัขเพื่อเป็นส่วนหนึ่งในการตัดสินใจใช้บริการของฉัน" style="text;html=1;strokeColor=#d6b656;fillColor=#fff2cc;align=center;verticalAlign=middle;whiteSpace=wrap;rounded=0;" parent="1" vertex="1">
          <mxGeometry x="165" y="440" width="290" height="70" as="geometry" />
        </mxCell>
        <mxCell id="HKmxBVGciyJfvPybg_TP-22" value="(R6,R30)ระบบเก็บประวัติการใช้งานของผู้ฝาก" style="text;html=1;strokeColor=#b85450;fillColor=#f8cecc;align=center;verticalAlign=middle;whiteSpace=wrap;rounded=0;" parent="1" vertex="1">
          <mxGeometry x="3560" y="729.9999999999999" width="210" height="40" as="geometry" />
        </mxCell>
        <mxCell id="HKmxBVGciyJfvPybg_TP-37" style="edgeStyle=orthogonalEdgeStyle;rounded=0;orthogonalLoop=1;jettySize=auto;html=1;entryX=0.5;entryY=0;entryDx=0;entryDy=0;" parent="1" source="dxZLNk9cy04sAQ8Tn0tS-10" target="HKmxBVGciyJfvPybg_TP-13" edge="1">
          <mxGeometry relative="1" as="geometry" />
        </mxCell>
        <mxCell id="HKmxBVGciyJfvPybg_TP-65" style="edgeStyle=orthogonalEdgeStyle;rounded=0;orthogonalLoop=1;jettySize=auto;html=1;entryX=0.5;entryY=0;entryDx=0;entryDy=0;" parent="1" source="dxZLNk9cy04sAQ8Tn0tS-10" target="HKmxBVGciyJfvPybg_TP-64" edge="1">
          <mxGeometry relative="1" as="geometry">
            <Array as="points">
              <mxPoint x="510" y="1110" />
              <mxPoint x="720" y="1110" />
              <mxPoint x="720" y="1280" />
              <mxPoint x="560" y="1280" />
              <mxPoint x="560" y="1490" />
            </Array>
          </mxGeometry>
        </mxCell>
        <mxCell id="dxZLNk9cy04sAQ8Tn0tS-10" value="ในฐานะลูกค้าฉันต้องการให้มีการเรียงลำดับผู้รับฝากตามราคาหรือคะแนนรีวิวเพื่อความง่ายในการตัดสินใจเลือกใช้บริการ" style="text;html=1;align=center;verticalAlign=middle;whiteSpace=wrap;rounded=0;fillColor=#FFB366;" parent="1" vertex="1">
          <mxGeometry x="350" y="963" width="320" height="73.75" as="geometry" />
        </mxCell>
        <mxCell id="HKmxBVGciyJfvPybg_TP-26" value="(R28)ระบบเลือกบริการเพิ่มเติม" style="text;html=1;strokeColor=#b85450;fillColor=#f8cecc;align=center;verticalAlign=middle;whiteSpace=wrap;rounded=0;" parent="1" vertex="1">
          <mxGeometry x="3970" y="730" width="160" height="40" as="geometry" />
        </mxCell>
        <mxCell id="HKmxBVGciyJfvPybg_TP-28" value="(R32,R33)ระบบยกเลิกและปฏิเสธบริการ" style="text;html=1;strokeColor=#b85450;fillColor=#f8cecc;align=center;verticalAlign=middle;whiteSpace=wrap;rounded=0;" parent="1" vertex="1">
          <mxGeometry x="4330" y="897.65" width="160" height="50.71" as="geometry" />
        </mxCell>
        <mxCell id="HKmxBVGciyJfvPybg_TP-51" style="edgeStyle=orthogonalEdgeStyle;rounded=0;orthogonalLoop=1;jettySize=auto;html=1;entryX=0.5;entryY=0;entryDx=0;entryDy=0;" parent="1" source="dxZLNk9cy04sAQ8Tn0tS-11" target="HKmxBVGciyJfvPybg_TP-50" edge="1">
          <mxGeometry relative="1" as="geometry" />
        </mxCell>
        <mxCell id="HKmxBVGciyJfvPybg_TP-80" style="edgeStyle=orthogonalEdgeStyle;rounded=0;orthogonalLoop=1;jettySize=auto;html=1;entryX=0.5;entryY=0;entryDx=0;entryDy=0;" parent="1" target="HKmxBVGciyJfvPybg_TP-66" edge="1">
          <mxGeometry relative="1" as="geometry">
            <mxPoint x="890" y="1070" as="sourcePoint" />
            <Array as="points">
              <mxPoint x="770" y="1380" />
              <mxPoint x="882" y="1380" />
            </Array>
          </mxGeometry>
        </mxCell>
        <mxCell id="dxZLNk9cy04sAQ8Tn0tS-11" value="ในฐานะลูกค้าฉันต้องการกรองข้อมูลที่ค้นหาได้ เช่นค่าบริการ ขนาดบริเวณเลี้ยง เพื่อให้ฉันสามารถค้นหาบริการที่ตรงตามความต้องการได้" style="text;html=1;align=center;verticalAlign=middle;whiteSpace=wrap;rounded=0;fillColor=#FFB366;" parent="1" vertex="1">
          <mxGeometry x="720" y="973.75" width="330" height="60" as="geometry" />
        </mxCell>
        <mxCell id="HKmxBVGciyJfvPybg_TP-43" style="edgeStyle=orthogonalEdgeStyle;rounded=0;orthogonalLoop=1;jettySize=auto;html=1;entryX=0.5;entryY=0;entryDx=0;entryDy=0;" parent="1" source="dxZLNk9cy04sAQ8Tn0tS-15" target="nhhT_SBoXh_8rAoRiU5J-21" edge="1">
          <mxGeometry relative="1" as="geometry" />
        </mxCell>
        <mxCell id="HKmxBVGciyJfvPybg_TP-45" style="edgeStyle=orthogonalEdgeStyle;rounded=0;orthogonalLoop=1;jettySize=auto;html=1;entryX=0.5;entryY=0;entryDx=0;entryDy=0;" parent="1" source="dxZLNk9cy04sAQ8Tn0tS-15" target="HKmxBVGciyJfvPybg_TP-44" edge="1">
          <mxGeometry relative="1" as="geometry">
            <Array as="points">
              <mxPoint x="2285" y="884.92" />
              <mxPoint x="2445" y="884.92" />
            </Array>
          </mxGeometry>
        </mxCell>
        <mxCell id="HKmxBVGciyJfvPybg_TP-76" style="edgeStyle=orthogonalEdgeStyle;rounded=0;orthogonalLoop=1;jettySize=auto;html=1;entryX=0.373;entryY=0.005;entryDx=0;entryDy=0;entryPerimeter=0;" parent="1" source="dxZLNk9cy04sAQ8Tn0tS-15" target="HKmxBVGciyJfvPybg_TP-74" edge="1">
          <mxGeometry relative="1" as="geometry">
            <Array as="points">
              <mxPoint x="2285" y="900" />
              <mxPoint x="2097" y="900" />
            </Array>
          </mxGeometry>
        </mxCell>
        <mxCell id="dxZLNk9cy04sAQ8Tn0tS-15" value="ในฐานะลูกค้าฉันต้องที่จะเปลี่ยนรหัสผ่านเมื่อฉันลืมรหัสผ่านหรือรหัสผ่านเก่าของฉันไม่ปลอดภัย" style="text;html=1;strokeColor=#82b366;align=center;verticalAlign=middle;whiteSpace=wrap;rounded=0;fillColor=#99FF99;" parent="1" vertex="1">
          <mxGeometry x="2120" y="679.2899999999998" width="330" height="80" as="geometry" />
        </mxCell>
        <mxCell id="HKmxBVGciyJfvPybg_TP-48" style="edgeStyle=orthogonalEdgeStyle;rounded=0;orthogonalLoop=1;jettySize=auto;html=1;entryX=0.5;entryY=0;entryDx=0;entryDy=0;" parent="1" source="dxZLNk9cy04sAQ8Tn0tS-16" target="HKmxBVGciyJfvPybg_TP-47" edge="1">
          <mxGeometry relative="1" as="geometry" />
        </mxCell>
        <mxCell id="HKmxBVGciyJfvPybg_TP-71" style="edgeStyle=orthogonalEdgeStyle;rounded=0;orthogonalLoop=1;jettySize=auto;html=1;entryX=0.5;entryY=0;entryDx=0;entryDy=0;" parent="1" source="dxZLNk9cy04sAQ8Tn0tS-16" target="HKmxBVGciyJfvPybg_TP-70" edge="1">
          <mxGeometry relative="1" as="geometry">
            <Array as="points">
              <mxPoint x="1265" y="1010" />
              <mxPoint x="1590" y="1010" />
              <mxPoint x="1590" y="1450" />
            </Array>
          </mxGeometry>
        </mxCell>
        <mxCell id="dxZLNk9cy04sAQ8Tn0tS-16" value="ในฐานะลูกค้าฉันต้องการดู GPS ภายในแอปเพื่อให้ง่ายต่อการเดินทางไปใช้บริการหรือเพื่อดูระยะทางจากบ้านจนถึงจุดให้บริการ" style="text;html=1;strokeColor=none;align=center;verticalAlign=middle;whiteSpace=wrap;rounded=0;fillColor=#99FF99;" parent="1" vertex="1">
          <mxGeometry x="1100" y="680" width="330" height="90" as="geometry" />
        </mxCell>
        <mxCell id="HKmxBVGciyJfvPybg_TP-59" style="edgeStyle=orthogonalEdgeStyle;rounded=0;orthogonalLoop=1;jettySize=auto;html=1;" parent="1" source="dxZLNk9cy04sAQ8Tn0tS-17" target="HKmxBVGciyJfvPybg_TP-58" edge="1">
          <mxGeometry relative="1" as="geometry">
            <Array as="points">
              <mxPoint x="7060" y="440" />
              <mxPoint x="7060" y="440" />
            </Array>
          </mxGeometry>
        </mxCell>
        <mxCell id="dxZLNk9cy04sAQ8Tn0tS-17" value="ในฐานะเจ้าของธุรกิจฉันต้องการติดประกาศโฆษณาบนเว็บไซต์เพื่อให้ลูกค้าเกิดความสนใจที่จะซื้อสินค้าและบริการ" style="text;html=1;strokeColor=#9673a6;fillColor=#e1d5e7;align=center;verticalAlign=middle;whiteSpace=wrap;rounded=0;" parent="1" vertex="1">
          <mxGeometry x="6890" y="240" width="340" height="56" as="geometry" />
        </mxCell>
        <mxCell id="HKmxBVGciyJfvPybg_TP-40" style="edgeStyle=orthogonalEdgeStyle;rounded=0;orthogonalLoop=1;jettySize=auto;html=1;entryX=0.5;entryY=0;entryDx=0;entryDy=0;" parent="1" source="HKmxBVGciyJfvPybg_TP-39" target="jnvt6yLyoFwgxf8Hf7rp-21" edge="1">
          <mxGeometry relative="1" as="geometry">
            <Array as="points">
              <mxPoint x="900" y="850" />
              <mxPoint x="1110" y="850" />
            </Array>
          </mxGeometry>
        </mxCell>
        <mxCell id="HKmxBVGciyJfvPybg_TP-69" style="edgeStyle=orthogonalEdgeStyle;rounded=0;orthogonalLoop=1;jettySize=auto;html=1;" parent="1" source="HKmxBVGciyJfvPybg_TP-39" target="HKmxBVGciyJfvPybg_TP-68" edge="1">
          <mxGeometry relative="1" as="geometry">
            <Array as="points">
              <mxPoint x="900" y="850" />
              <mxPoint x="1250" y="850" />
            </Array>
          </mxGeometry>
        </mxCell>
        <mxCell id="HKmxBVGciyJfvPybg_TP-39" value="ในฐานะที่เป็นลูกค้า ฉันต้องการให้ระบบแนะนำผู้รับฝากที่อยู่ใกล้บ้านฉัน" style="text;html=1;align=center;verticalAlign=middle;whiteSpace=wrap;rounded=0;fillColor=#99FF99;strokeColor=#97D077;" parent="1" vertex="1">
          <mxGeometry x="790" y="680" width="220" height="90" as="geometry" />
        </mxCell>
        <mxCell id="HKmxBVGciyJfvPybg_TP-54" style="edgeStyle=orthogonalEdgeStyle;rounded=0;orthogonalLoop=1;jettySize=auto;html=1;" parent="1" source="dxZLNk9cy04sAQ8Tn0tS-18" target="HKmxBVGciyJfvPybg_TP-53" edge="1">
          <mxGeometry relative="1" as="geometry" />
        </mxCell>
        <mxCell id="dxZLNk9cy04sAQ8Tn0tS-18" value="ในฐานะลูกค้าฉันต้องระบบช่วยเหลือพื้นฐานผู้ใช้งานเพื่อให้ความช่วยเหลือเมื่อฉันไม่เข้าใจการใช้งานของแอป" style="text;html=1;strokeColor=#d6b656;fillColor=#fff2cc;align=center;verticalAlign=middle;whiteSpace=wrap;rounded=0;" parent="1" vertex="1">
          <mxGeometry x="4720" y="536.25" width="300" height="80" as="geometry" />
        </mxCell>
        <mxCell id="HKmxBVGciyJfvPybg_TP-92" style="edgeStyle=orthogonalEdgeStyle;rounded=0;orthogonalLoop=1;jettySize=auto;html=1;entryX=0;entryY=0.5;entryDx=0;entryDy=0;" parent="1" source="dxZLNk9cy04sAQ8Tn0tS-19" target="nhhT_SBoXh_8rAoRiU5J-23" edge="1">
          <mxGeometry relative="1" as="geometry" />
        </mxCell>
        <mxCell id="dxZLNk9cy04sAQ8Tn0tS-19" value="ในฐานะลูกค้าฉันต้องการสร้างโปรไฟล์ของสุนัขที่ฉันเลี้ยงเพื่อความง่ายในการระบุความต้องการของสุนัข" style="text;html=1;strokeColor=#d6b656;fillColor=#fff2cc;align=center;verticalAlign=middle;whiteSpace=wrap;rounded=0;" parent="1" vertex="1">
          <mxGeometry x="5210" y="530" width="310" height="90.07" as="geometry" />
        </mxCell>
        <mxCell id="HKmxBVGciyJfvPybg_TP-44" value="(R19)ระบบเปลี่ยนรหัสหรือลืมรหัสผู้ใช้" style="text;html=1;strokeColor=#b85450;fillColor=#f8cecc;align=center;verticalAlign=middle;whiteSpace=wrap;rounded=0;" parent="1" vertex="1">
          <mxGeometry x="2350" y="1032.67" width="190" height="37.33" as="geometry" />
        </mxCell>
        <mxCell id="HKmxBVGciyJfvPybg_TP-47" value="(R17)ระบบ GPS" style="text;html=1;strokeColor=#b85450;fillColor=#f8cecc;align=center;verticalAlign=middle;whiteSpace=wrap;rounded=0;" parent="1" vertex="1">
          <mxGeometry x="1420" y="1250" width="115" height="40.71" as="geometry" />
        </mxCell>
        <mxCell id="HKmxBVGciyJfvPybg_TP-50" value="(R23)ระบบกรองข้อมูลแบ่งตามประเภทต่างๆ" style="text;html=1;strokeColor=#b85450;fillColor=#f8cecc;align=center;verticalAlign=middle;whiteSpace=wrap;rounded=0;" parent="1" vertex="1">
          <mxGeometry x="780" y="1211.25" width="205" height="58.75" as="geometry" />
        </mxCell>
        <mxCell id="HKmxBVGciyJfvPybg_TP-53" value="(R7)ระบบการช่วยเหลือว่าผู้ใช้ต้องทำอย่างไร" style="text;html=1;strokeColor=#b85450;fillColor=#f8cecc;align=center;verticalAlign=middle;whiteSpace=wrap;rounded=0;" parent="1" vertex="1">
          <mxGeometry x="4770" y="863.4999999999999" width="200" height="51.58" as="geometry" />
        </mxCell>
        <mxCell id="HKmxBVGciyJfvPybg_TP-58" value="(R16)ระบบลงโฆษณา" style="text;html=1;strokeColor=#b85450;fillColor=#f8cecc;align=center;verticalAlign=middle;whiteSpace=wrap;rounded=0;" parent="1" vertex="1">
          <mxGeometry x="7010" y="486.25" width="140" height="50" as="geometry" />
        </mxCell>
        <mxCell id="HKmxBVGciyJfvPybg_TP-62" value="DOD&lt;br&gt;1.มีหน้าเว็บแสดงรูปสถานที่ที่ผู้รับฝากใช้&lt;br&gt;2.มีรูปให้ดูหลายมุมมอง&lt;br&gt;3.เมื่อกดจะมี pop up แสดงรูปขนาดใหญ่" style="text;html=1;strokeColor=#6c8ebf;fillColor=#dae8fc;align=left;verticalAlign=middle;whiteSpace=wrap;rounded=0;" parent="1" vertex="1">
          <mxGeometry x="90" y="1470" width="230" height="70" as="geometry" />
        </mxCell>
        <mxCell id="HKmxBVGciyJfvPybg_TP-64" value="DOD&lt;br&gt;1.มี drop down list เพื่อเลือกว่าจะเรียงลำดับตามอะไร" style="text;html=1;strokeColor=#6c8ebf;fillColor=#dae8fc;align=left;verticalAlign=middle;whiteSpace=wrap;rounded=0;" parent="1" vertex="1">
          <mxGeometry x="400" y="1500" width="320" height="50" as="geometry" />
        </mxCell>
        <mxCell id="HKmxBVGciyJfvPybg_TP-66" value="DOD&lt;br&gt;1. มี drop down list เพื่อกรองข้อมูลที่จะค้นหาตามประเภท" style="text;html=1;strokeColor=#6c8ebf;fillColor=#dae8fc;align=left;verticalAlign=middle;whiteSpace=wrap;rounded=0;" parent="1" vertex="1">
          <mxGeometry x="780" y="1500" width="205" height="50" as="geometry" />
        </mxCell>
        <mxCell id="HKmxBVGciyJfvPybg_TP-68" value="DOD&lt;br&gt;1. เมื่อลูกค้ากดปุ่มค้นหาจะมีการแสดงผู้รับฝากที่อยู่ใกล้สุด" style="text;html=1;strokeColor=#6c8ebf;fillColor=#dae8fc;align=left;verticalAlign=middle;whiteSpace=wrap;rounded=0;" parent="1" vertex="1">
          <mxGeometry x="1150" y="1500" width="210" height="70" as="geometry" />
        </mxCell>
        <mxCell id="HKmxBVGciyJfvPybg_TP-70" value="DOD&lt;br&gt;1.ตอนค้นหาผู้รับฝากจะแสดงระยะทางของผู้รับฝากโดยใช้ GPS" style="text;html=1;strokeColor=#6c8ebf;fillColor=#dae8fc;align=left;verticalAlign=middle;whiteSpace=wrap;rounded=0;" parent="1" vertex="1">
          <mxGeometry x="1470" y="1450" width="230" height="50" as="geometry" />
        </mxCell>
        <mxCell id="HKmxBVGciyJfvPybg_TP-72" value="&lt;div style=&quot;text-align: left&quot;&gt;&lt;span&gt;DOD&lt;/span&gt;&lt;/div&gt;&lt;div style=&quot;text-align: left&quot;&gt;&lt;span&gt;1.หน้าเว็บแสดงสถานะว่าตอนนี้ลูกค้าอยู่ในขั้นตอนการบริการไหน&lt;/span&gt;&lt;/div&gt;" style="text;html=1;strokeColor=#6c8ebf;fillColor=#dae8fc;align=center;verticalAlign=middle;whiteSpace=wrap;rounded=0;" parent="1" vertex="1">
          <mxGeometry x="1660" y="1110" width="240" height="60" as="geometry" />
        </mxCell>
        <mxCell id="dxZLNk9cy04sAQ8Tn0tS-21" value="" style="endArrow=classic;html=1;entryX=0.5;entryY=0;entryDx=0;entryDy=0;" parent="1" target="dxZLNk9cy04sAQ8Tn0tS-22" edge="1">
          <mxGeometry width="50" height="50" relative="1" as="geometry">
            <mxPoint x="7060" y="420" as="sourcePoint" />
            <mxPoint x="7410" y="480" as="targetPoint" />
            <Array as="points">
              <mxPoint x="7530" y="420" />
            </Array>
          </mxGeometry>
        </mxCell>
        <mxCell id="dxZLNk9cy04sAQ8Tn0tS-22" value="DOD&lt;br&gt;1. สร้างแถบแสดงผลโฆษณาเพื่อให้คนมาใช้บริการพื้นที่ในการโฆษณา&amp;nbsp;" style="text;html=1;strokeColor=#6c8ebf;fillColor=#dae8fc;align=left;verticalAlign=middle;whiteSpace=wrap;rounded=0;" parent="1" vertex="1">
          <mxGeometry x="7350" y="486.25" width="360" height="93.75" as="geometry" />
        </mxCell>
        <mxCell id="HKmxBVGciyJfvPybg_TP-74" value="DOD&lt;br&gt;1.หน้า login มีข้อความแสดงว่าลืมรหัส เมื่อกดเข้าไปจะทำการ reset password โดยให้ใส่ password ใหม่&lt;br&gt;2.ลูกค้าสามารถเปลี่ยนรหัสได้ที่ setting" style="text;html=1;strokeColor=#6c8ebf;fillColor=#dae8fc;align=left;verticalAlign=middle;whiteSpace=wrap;rounded=0;" parent="1" vertex="1">
          <mxGeometry x="2000" y="1218.75" width="260" height="88.75" as="geometry" />
        </mxCell>
        <mxCell id="dxZLNk9cy04sAQ8Tn0tS-26" value="DOD&lt;br&gt;1. ทำระบบสร้างโปรไฟล์ของสุนัข&lt;br&gt;2. สามารถปรับค่าต่างๆของสุนัขได้ภายในโปรไฟล์&amp;nbsp;" style="text;html=1;strokeColor=#6c8ebf;fillColor=#dae8fc;align=left;verticalAlign=middle;whiteSpace=wrap;rounded=0;" parent="1" vertex="1">
          <mxGeometry x="6290" y="923.36" width="265" height="90" as="geometry" />
        </mxCell>
        <mxCell id="dxZLNk9cy04sAQ8Tn0tS-27" value="" style="endArrow=classic;html=1;entryX=0.5;entryY=0;entryDx=0;entryDy=0;" parent="1" target="dxZLNk9cy04sAQ8Tn0tS-26" edge="1">
          <mxGeometry width="50" height="50" relative="1" as="geometry">
            <mxPoint x="6160" y="830" as="sourcePoint" />
            <mxPoint x="6420" y="830" as="targetPoint" />
            <Array as="points">
              <mxPoint x="6423" y="830" />
            </Array>
          </mxGeometry>
        </mxCell>
        <mxCell id="HKmxBVGciyJfvPybg_TP-77" value="(R31)ระบบให้ผู้รับฝากปฏิเสธคำขอได้" style="text;html=1;strokeColor=#b85450;fillColor=#f8cecc;align=center;verticalAlign=middle;whiteSpace=wrap;rounded=0;" parent="1" vertex="1">
          <mxGeometry x="6505" y="804.21" width="170" height="35.79" as="geometry" />
        </mxCell>
        <mxCell id="dxZLNk9cy04sAQ8Tn0tS-28" value="DOD&lt;br&gt;1. สร้างเมนูการช่วยเหลือต่างๆภายในระบบการช่วยเหลือ&lt;br&gt;2. ผู้ใช้สามารถเข้ามาดูเมื่อลูกค้าไม่เข้าใจระบบต่างๆ" style="text;html=1;strokeColor=#6c8ebf;fillColor=#dae8fc;align=left;verticalAlign=middle;whiteSpace=wrap;rounded=0;" parent="1" vertex="1">
          <mxGeometry x="5020" y="863.5" width="290" height="78" as="geometry" />
        </mxCell>
        <mxCell id="dxZLNk9cy04sAQ8Tn0tS-29" value="" style="endArrow=classic;html=1;entryX=0.5;entryY=0;entryDx=0;entryDy=0;" parent="1" target="dxZLNk9cy04sAQ8Tn0tS-28" edge="1">
          <mxGeometry width="50" height="50" relative="1" as="geometry">
            <mxPoint x="4870" y="780" as="sourcePoint" />
            <mxPoint x="5170" y="780" as="targetPoint" />
            <Array as="points">
              <mxPoint x="5165" y="780" />
            </Array>
          </mxGeometry>
        </mxCell>
        <mxCell id="dxZLNk9cy04sAQ8Tn0tS-30" value="DOD&lt;br&gt;1. สร้างปุ่มยกเลิกบริการในเมนูบริการที่ใช้งานอยู่&lt;br&gt;2. เมื่อลูกค้ากดยกเลิกบริการและยืนยันจะทำการยกเลิก&amp;nbsp; บริการและแจ้งเตือนไปยังผู้รับฝาก" style="text;html=1;strokeColor=#6c8ebf;fillColor=#dae8fc;align=left;verticalAlign=middle;whiteSpace=wrap;rounded=0;" parent="1" vertex="1">
          <mxGeometry x="4515" y="953.25" width="280" height="81" as="geometry" />
        </mxCell>
        <mxCell id="dxZLNk9cy04sAQ8Tn0tS-31" value="" style="endArrow=classic;html=1;entryX=0.5;entryY=0;entryDx=0;entryDy=0;" parent="1" target="dxZLNk9cy04sAQ8Tn0tS-30" edge="1">
          <mxGeometry width="50" height="50" relative="1" as="geometry">
            <mxPoint x="4410" y="840" as="sourcePoint" />
            <mxPoint x="4670" y="840" as="targetPoint" />
            <Array as="points">
              <mxPoint x="4655" y="840" />
            </Array>
          </mxGeometry>
        </mxCell>
        <mxCell id="HKmxBVGciyJfvPybg_TP-83" value="DOD&lt;br&gt;&lt;div&gt;&lt;span&gt;1. หน้าเว็บที่สามารถพิมพ์ตอบกันได้เหมื่อน messenger หรือ line&lt;/span&gt;&lt;/div&gt;" style="text;html=1;strokeColor=#6c8ebf;fillColor=#dae8fc;align=left;verticalAlign=middle;whiteSpace=wrap;rounded=0;" parent="1" vertex="1">
          <mxGeometry x="2620" y="963.75" width="210" height="60" as="geometry" />
        </mxCell>
        <mxCell id="dxZLNk9cy04sAQ8Tn0tS-33" value="" style="endArrow=classic;html=1;entryX=0.5;entryY=0;entryDx=0;entryDy=0;" parent="1" target="dxZLNk9cy04sAQ8Tn0tS-35" edge="1">
          <mxGeometry width="50" height="50" relative="1" as="geometry">
            <mxPoint x="4050" y="650" as="sourcePoint" />
            <mxPoint x="3910" y="900" as="targetPoint" />
            <Array as="points">
              <mxPoint x="3930" y="650" />
            </Array>
          </mxGeometry>
        </mxCell>
        <mxCell id="dxZLNk9cy04sAQ8Tn0tS-35" value="DOD&lt;br&gt;1. สร้างแถบให้เลือกบริการเพิ่มเติมอยู่ในเมนูบริการ&lt;br&gt;2. ลูกค้าสามารถเลือกบริการเพิ่มเติมให้กับสุนัขที่ฝากได้" style="text;html=1;strokeColor=#6c8ebf;fillColor=#dae8fc;align=left;verticalAlign=middle;whiteSpace=wrap;rounded=0;" parent="1" vertex="1">
          <mxGeometry x="3790" y="908.36" width="280" height="80" as="geometry" />
        </mxCell>
        <mxCell id="HKmxBVGciyJfvPybg_TP-85" value="DOD&lt;br&gt;1. มีปุ่มเพื่อให้ลูกค้ากด สามารถเลือกรีวิว หรือ รายงานได้&lt;br&gt;2. การรีวิวมีช่องคะแนนให้กดด้วย" style="text;html=1;strokeColor=#6c8ebf;fillColor=#dae8fc;align=left;verticalAlign=middle;whiteSpace=wrap;rounded=0;" parent="1" vertex="1">
          <mxGeometry x="2925" y="963.75" width="300" height="80" as="geometry" />
        </mxCell>
        <mxCell id="HKmxBVGciyJfvPybg_TP-87" value="DOD&lt;br&gt;1.หน้าเว็บเป็นช่องใส่ข้อมูลต่างๆเพื่อชำระเงินผ่านเว็บไซต์" style="text;html=1;strokeColor=#6c8ebf;fillColor=#dae8fc;align=left;verticalAlign=middle;whiteSpace=wrap;rounded=0;" parent="1" vertex="1">
          <mxGeometry x="3340" y="1080" width="220" height="66.25" as="geometry" />
        </mxCell>
        <mxCell id="HKmxBVGciyJfvPybg_TP-89" value="DOD&lt;br&gt;1. มีแถบเมนูมุมบนซ้ายมือเมื่อกดจะมีแถบประวัติการใช้งาน&lt;br&gt;2. หน้าเว็บจะแสดงประวัติการใช้งาน เช่น วัน-เวลา , สถานะการบริการ" style="text;html=1;strokeColor=#6c8ebf;fillColor=#dae8fc;align=left;verticalAlign=middle;whiteSpace=wrap;rounded=0;" parent="1" vertex="1">
          <mxGeometry x="3530" y="891.4" width="190" height="82.35" as="geometry" />
        </mxCell>
        <mxCell id="HKmxBVGciyJfvPybg_TP-95" value="" style="rounded=0;whiteSpace=wrap;html=1;strokeColor=#d6b656;fillColor=#fff2cc;" parent="1" vertex="1">
          <mxGeometry x="40" y="230" width="40" height="40" as="geometry" />
        </mxCell>
        <mxCell id="HKmxBVGciyJfvPybg_TP-96" value="" style="rounded=0;whiteSpace=wrap;html=1;strokeColor=#97D077;fillColor=#99FF99;" parent="1" vertex="1">
          <mxGeometry x="90" y="240" width="40" height="30" as="geometry" />
        </mxCell>
        <mxCell id="HKmxBVGciyJfvPybg_TP-97" value="" style="text;html=1;strokeColor=#82b366;fillColor=#d5e8d4;align=center;verticalAlign=middle;whiteSpace=wrap;rounded=0;" parent="1" vertex="1">
          <mxGeometry x="40" y="110" width="40" height="40" as="geometry" />
        </mxCell>
        <mxCell id="HKmxBVGciyJfvPybg_TP-98" value="" style="text;html=1;strokeColor=#9673a6;fillColor=#e1d5e7;align=center;verticalAlign=middle;whiteSpace=wrap;rounded=0;" parent="1" vertex="1">
          <mxGeometry x="40" y="170" width="40" height="40" as="geometry" />
        </mxCell>
        <mxCell id="HKmxBVGciyJfvPybg_TP-100" value="" style="text;html=1;align=center;verticalAlign=middle;whiteSpace=wrap;rounded=0;fillColor=#FFB366;" parent="1" vertex="1">
          <mxGeometry x="150" y="237.5" width="40" height="35" as="geometry" />
        </mxCell>
        <mxCell id="HKmxBVGciyJfvPybg_TP-101" value="" style="text;html=1;strokeColor=#b85450;fillColor=#f8cecc;align=center;verticalAlign=middle;whiteSpace=wrap;rounded=0;" parent="1" vertex="1">
          <mxGeometry x="40" y="310" width="40" height="27.52" as="geometry" />
        </mxCell>
        <mxCell id="HKmxBVGciyJfvPybg_TP-103" value="" style="text;html=1;strokeColor=#6c8ebf;fillColor=#dae8fc;align=left;verticalAlign=middle;whiteSpace=wrap;rounded=0;" parent="1" vertex="1">
          <mxGeometry x="40" y="370" width="40" height="30" as="geometry" />
        </mxCell>
        <mxCell id="HKmxBVGciyJfvPybg_TP-105" value="User Need" style="text;html=1;align=center;verticalAlign=middle;resizable=0;points=[];autosize=1;" parent="1" vertex="1">
          <mxGeometry x="105" y="120" width="70" height="20" as="geometry" />
        </mxCell>
        <mxCell id="HKmxBVGciyJfvPybg_TP-106" value="EPIC" style="text;html=1;align=center;verticalAlign=middle;resizable=0;points=[];autosize=1;" parent="1" vertex="1">
          <mxGeometry x="110" y="180" width="40" height="20" as="geometry" />
        </mxCell>
        <mxCell id="HKmxBVGciyJfvPybg_TP-108" value="User Story" style="text;html=1;align=center;verticalAlign=middle;resizable=0;points=[];autosize=1;" parent="1" vertex="1">
          <mxGeometry x="190" y="245" width="70" height="20" as="geometry" />
        </mxCell>
        <mxCell id="HKmxBVGciyJfvPybg_TP-109" value="Task" style="text;html=1;align=center;verticalAlign=middle;resizable=0;points=[];autosize=1;" parent="1" vertex="1">
          <mxGeometry x="100" y="320" width="40" height="20" as="geometry" />
        </mxCell>
        <mxCell id="HKmxBVGciyJfvPybg_TP-110" value="DOD" style="text;html=1;align=center;verticalAlign=middle;resizable=0;points=[];autosize=1;" parent="1" vertex="1">
          <mxGeometry x="100" y="380" width="40" height="20" as="geometry" />
        </mxCell>
      </root>
    </mxGraphModel>
  </diagram>
</mxfile>
